<?xml version="1.0" standalone="no"?><svg xmlns="http://www.w3.org/2000/svg" viewBox="0 0 1440 320"><path fill="#ffffff" fill-opacity="1" d="M0,128L40,144C80,160,160,192,240,213.3C320,235,400,245,480,256C560,267,640,277,720,234.7C800,192,880,96,960,90.7C1040,85,1120,171,1200,218.7C1280,267,1360,277,1400,282.7L1440,288L1440,320L1400,320C1360,320,1280,320,1200,320C1120,320,1040,320,960,320C880,320,800,320,720,320C640,320,560,320,480,320C400,320,320,320,240,320C160,320,80,320,40,320L0,320Z"></path></svg>